<svg width="11" height="13" viewBox="0 0 11 13" fill="none" xmlns="http://www.w3.org/2000/svg">
<path d="M7.70984 7.71879C8.6101 7.71879 9.37947 8.05732 10.0179 8.73439C10.6726 9.39456 11 10.1901 11 11.1211V11.7812C11 12.1198 10.8855 12.4076 10.6563 12.6446C10.4271 12.8815 10.1488 13 9.82139 13H1.17857C0.851189 13 0.572917 12.8815 0.34375 12.6446C0.114583 12.4076 0 12.1198 0 11.7812V11.1211C0 10.1901 0.319197 9.39456 0.957588 8.73439C1.61235 8.05732 2.38988 7.71879 3.29018 7.71879C3.50298 7.71879 3.81399 7.78646 4.22322 7.92189C4.64881 8.05732 5.07441 8.125 5.5 8.125C5.92559 8.125 6.35119 8.05732 6.77678 7.92189C7.20238 7.78646 7.51343 7.71879 7.70984 7.71879ZM9.82139 11.7812V11.1211C9.82139 10.5286 9.60864 10.0209 9.18306 9.59767C8.77382 9.15758 8.28272 8.9375 7.70984 8.9375C7.66073 8.9375 7.3988 9.00518 6.92411 9.14061C6.46577 9.27604 5.99107 9.34379 5.5 9.34379C5.00893 9.34379 4.52604 9.27604 4.05134 9.14061C3.593 9.00518 3.33928 8.9375 3.29018 8.9375C2.71726 8.9375 2.21801 9.15758 1.79241 9.59767C1.38318 10.0209 1.17857 10.5286 1.17857 11.1211V11.7812H9.82139ZM8.00445 6.24609C7.31696 6.95703 6.48214 7.3125 5.5 7.3125C4.51786 7.3125 3.68304 6.95703 2.99553 6.24609C2.30803 5.53516 1.96429 4.67188 1.96429 3.65625C1.96429 2.64062 2.30803 1.77734 2.99553 1.06641C3.68304 0.355469 4.51786 0 5.5 0C6.48214 0 7.31696 0.355469 8.00445 1.06641C8.69196 1.77734 9.03575 2.64062 9.03575 3.65625C9.03575 4.67188 8.69196 5.53516 8.00445 6.24609ZM7.16964 1.92969C6.71131 1.45573 6.15476 1.21875 5.5 1.21875C4.84524 1.21875 4.28869 1.45573 3.83036 1.92969C3.37203 2.40365 3.14286 2.97916 3.14286 3.65625C3.14286 4.33334 3.37203 4.90885 3.83036 5.38281C4.28869 5.85677 4.84524 6.09375 5.5 6.09375C6.15476 6.09375 6.71131 5.85677 7.16964 5.38281C7.62797 4.90885 7.85714 4.33334 7.85714 3.65625C7.85714 2.97916 7.62797 2.40365 7.16964 1.92969Z" fill="#212121"/>
</svg>
