<svg width="107" height="52" viewBox="0 0 107 52" fill="none" xmlns="http://www.w3.org/2000/svg">
<path d="M9.9702 48.6649C9.9702 48.7809 9.94146 48.8679 9.85527 48.9259C9.76907 48.9839 9.59667 49.0129 9.33808 49.0129C9.19442 49.0129 9.07949 49.0129 8.99329 49.0129C8.90709 49.0129 8.82089 48.9839 8.79216 48.9839C8.7347 48.9549 8.70596 48.9549 8.67723 48.9259C8.6485 48.8969 8.6485 48.8679 8.6485 48.8099L8.10258 44.4016C8.07385 44.2566 8.07385 44.0826 8.04511 43.9086C8.01638 43.7346 8.01638 43.5606 7.98765 43.3576C7.95892 43.1836 7.95892 42.9806 7.93019 42.8065C7.93019 42.6325 7.90145 42.4585 7.87272 42.2845V42.0815C7.81525 42.2555 7.75779 42.4295 7.70032 42.6035C7.64286 42.7775 7.58539 42.9516 7.52793 43.1546C7.47046 43.3286 7.413 43.5316 7.35553 43.7056C7.29807 43.8796 7.2406 44.0536 7.18314 44.2276L5.60285 48.6939C5.57412 48.7519 5.54538 48.8099 5.51665 48.8679C5.48792 48.9259 5.43045 48.9549 5.40172 48.9839C5.34425 49.0129 5.28679 49.0419 5.20059 49.0419C5.1144 49.0419 5.0282 49.0709 4.91327 49.0709C4.79834 49.0709 4.71214 49.0709 4.62594 49.0419C4.53974 49.0419 4.48228 49.0129 4.42481 48.9839C4.36735 48.9549 4.33862 48.9259 4.30988 48.8679C4.28115 48.8099 4.25242 48.7809 4.22369 48.6939L2.70086 44.1986C2.6434 44.0536 2.58593 43.8796 2.52847 43.7056C2.471 43.5316 2.41353 43.3576 2.35607 43.1546C2.2986 42.9806 2.24114 42.7775 2.18367 42.6035C2.12621 42.4295 2.06874 42.2555 2.04001 42.0815V42.2845C2.01128 42.4585 2.01128 42.6325 1.98255 42.8065C1.95381 42.9806 1.95381 43.1836 1.92508 43.3576C1.89635 43.5316 1.89635 43.7346 1.86762 43.9086C1.83888 44.0826 1.83888 44.2566 1.81015 44.4016L1.29296 48.7519C1.29296 48.8099 1.26423 48.8679 1.26423 48.9259C1.2355 48.9549 1.20677 49.0129 1.1493 49.0129C1.09184 49.0419 1.03437 49.0419 0.919442 49.0419C0.833244 49.0419 0.718314 49.0419 0.574651 49.0419C0.430988 49.0419 0.316059 49.0419 0.258593 49.0129C0.201128 48.9839 0.114931 48.9839 0.086198 48.9549C0.0574654 48.9259 0.0287326 48.8969 0 48.8389C0 48.8099 0 48.7519 0 48.6939L0.833245 41.5305C0.861977 41.3565 0.919442 41.2115 1.03437 41.1245C1.12057 41.0374 1.26423 40.9794 1.46536 40.9794H2.12621C2.2986 40.9794 2.41353 40.9794 2.52847 41.0084C2.6434 41.0374 2.72959 41.0664 2.81579 41.1245C2.90199 41.1825 2.95945 41.2695 3.01692 41.3855C3.07438 41.5015 3.13185 41.6175 3.18931 41.7625L4.30988 44.9817C4.36735 45.1847 4.42481 45.3877 4.51101 45.5617C4.56848 45.7647 4.62594 45.9677 4.71214 46.1417C4.7696 46.3447 4.82707 46.5188 4.88453 46.7218C4.942 46.8958 4.99946 47.0698 5.0282 47.2438H5.05693C5.1144 47.0698 5.17186 46.8958 5.20059 46.6928C5.25806 46.4897 5.31552 46.3157 5.37299 46.1127C5.43045 45.9097 5.48792 45.7067 5.57412 45.5327C5.63158 45.3297 5.68905 45.1557 5.77524 44.9817L6.89581 41.7915C6.95328 41.6465 6.98201 41.5305 7.03948 41.4145C7.09694 41.2985 7.15441 41.2405 7.2406 41.1535C7.3268 41.0955 7.413 41.0374 7.52793 41.0084C7.64286 40.9794 7.75779 40.9504 7.93019 40.9504H8.59103C8.79216 40.9504 8.93582 40.9794 9.05075 41.0664C9.16568 41.1535 9.22315 41.2985 9.22315 41.4725L9.9702 48.6649Z" fill="#D3B75E"/>
<path d="M18.7334 48.7227C18.7334 48.7517 18.7334 48.8097 18.7047 48.8387C18.6759 48.8677 18.6472 48.8967 18.5897 48.9257C18.5323 48.9547 18.4748 48.9547 18.3886 48.9837C18.3024 48.9837 18.1875 49.0127 18.0438 49.0127C17.9001 49.0127 17.7852 49.0127 17.699 48.9837C17.6128 48.9547 17.5266 48.9547 17.4692 48.9257C17.4117 48.8967 17.383 48.8677 17.3542 48.8387C17.3255 48.8097 17.3255 48.7807 17.3255 48.7227V44.3724C17.3255 44.1404 17.3255 43.9374 17.3542 43.7054C17.3542 43.4734 17.383 43.2414 17.383 43.0384C17.268 43.2704 17.1244 43.4734 16.952 43.7054C16.7796 43.9374 16.6359 44.1404 16.4922 44.3434L13.3029 48.7227C13.2742 48.7807 13.2167 48.8097 13.188 48.8387C13.1593 48.8677 13.1305 48.8967 13.0731 48.9257C13.0156 48.9547 12.9581 48.9547 12.9007 48.9547C12.8145 48.9547 12.7283 48.9547 12.6421 48.9547C12.5272 48.9547 12.4122 48.9547 12.3548 48.9257C12.2973 48.8967 12.2111 48.8967 12.1536 48.8677C12.0962 48.8387 12.0674 48.8097 12.0674 48.7807C12.0387 48.7517 12.0387 48.7227 12.0387 48.6647V41.0952C12.0387 41.0662 12.0387 41.0082 12.0674 40.9792C12.0962 40.9502 12.1249 40.9212 12.1824 40.8922C12.2398 40.8632 12.2973 40.8632 12.3835 40.8342C12.4697 40.8342 12.5846 40.8342 12.6995 40.8342C12.9581 40.8342 13.1593 40.8632 13.2455 40.8922C13.3317 40.9212 13.3891 41.0082 13.3891 41.0952V45.4745C13.3891 45.7065 13.3891 45.9095 13.3604 46.1125C13.3604 46.3155 13.3317 46.5475 13.3317 46.7506C13.4466 46.5475 13.5903 46.3155 13.7052 46.1125C13.8488 45.9095 13.9638 45.7065 14.1362 45.5035L17.3542 41.0662C17.383 41.0082 17.4117 40.9792 17.4692 40.9502C17.4979 40.9212 17.5553 40.8922 17.6128 40.8632C17.6703 40.8342 17.7277 40.8342 17.8139 40.8342C17.9001 40.8342 17.9863 40.8342 18.1013 40.8342C18.2162 40.8342 18.3024 40.8342 18.3886 40.8342C18.4748 40.8342 18.5323 40.8632 18.5897 40.8922C18.6472 40.9212 18.6759 40.9502 18.6759 40.9792C18.7047 41.0082 18.7047 41.0662 18.7047 41.0952V48.7227H18.7334Z" fill="#D3B75E"/>
<path d="M27.4111 48.7229C27.4111 48.7809 27.4111 48.8099 27.3824 48.8389C27.3537 48.8679 27.3249 48.8969 27.2675 48.9259C27.21 48.9549 27.1525 48.9549 27.0663 48.9839C26.9802 48.9839 26.8652 49.0129 26.7216 49.0129C26.5779 49.0129 26.463 49.0129 26.3768 48.9839C26.2906 48.9839 26.2044 48.9549 26.1756 48.9259C26.1182 48.8969 26.0894 48.8679 26.0607 48.8389C26.032 48.8099 26.032 48.7809 26.032 48.7229V42.1105H23.9632C23.877 43.0096 23.7621 43.7926 23.6472 44.4886C23.5322 45.1847 23.3886 45.7937 23.2162 46.3157C23.0725 46.8378 22.9001 47.2728 22.699 47.6208C22.4979 47.9688 22.2967 48.2588 22.0669 48.4619C21.837 48.6649 21.5784 48.8389 21.3198 48.9259C21.0612 49.0129 20.7739 49.0709 20.4579 49.0709C20.4004 49.0709 20.3717 49.0709 20.3429 49.0419C20.3142 49.0129 20.2855 48.9839 20.2567 48.9549C20.228 48.8969 20.228 48.8389 20.1993 48.7519C20.1993 48.6649 20.1705 48.5779 20.1705 48.4329C20.1705 48.2878 20.1705 48.2008 20.1705 48.1138C20.1705 48.0268 20.1993 47.9688 20.1993 47.9108C20.228 47.8528 20.2567 47.8238 20.2855 47.8238C20.3142 47.7948 20.3429 47.7948 20.4004 47.7948C20.5728 47.7948 20.7452 47.7658 20.9176 47.6788C21.09 47.5918 21.2336 47.4468 21.3773 47.2438C21.521 47.0408 21.6646 46.7798 21.7796 46.4607C21.8945 46.1417 22.0382 45.7357 22.1243 45.2717C22.2393 44.8077 22.3255 44.2566 22.4117 43.6186C22.4979 42.9806 22.5841 42.2555 22.6703 41.4435C22.6703 41.2695 22.7277 41.1535 22.7852 41.0664C22.8427 40.9794 22.9576 40.9504 23.0725 40.9504H26.9227C27.0663 40.9504 27.1525 40.9794 27.2387 41.0664C27.3249 41.1535 27.3537 41.2695 27.3537 41.4435V48.7229H27.4111Z" fill="#D3B75E"/>
<path d="M36.1167 48.7229C36.1167 48.7809 36.1167 48.8099 36.088 48.8389C36.0592 48.8679 36.0305 48.8969 35.973 48.9259C35.9156 48.9549 35.8581 48.9549 35.7719 48.9839C35.6857 48.9839 35.5708 49.0129 35.4271 49.0129C35.2835 49.0129 35.1685 49.0129 35.0823 48.9839C34.9961 48.9839 34.9099 48.9549 34.8812 48.9259C34.8237 48.8969 34.795 48.8679 34.7663 48.8389C34.7375 48.8099 34.7375 48.7809 34.7375 48.7229V42.1105H32.6688C32.5826 43.0096 32.4677 43.7926 32.3527 44.4886C32.2378 45.1847 32.0941 45.7937 31.9217 46.3157C31.7494 46.8378 31.6057 47.2728 31.4046 47.6208C31.2034 47.9688 31.0023 48.2588 30.7724 48.4619C30.5426 48.6649 30.284 48.8389 30.0254 48.9259C29.7668 49.0129 29.4795 49.0709 29.1634 49.0709C29.106 49.0709 29.0772 49.0709 29.0485 49.0419C29.0198 49.0129 28.991 48.9839 28.9623 48.9549C28.9336 48.8969 28.9336 48.8389 28.9048 48.7519C28.9048 48.6649 28.8761 48.5779 28.8761 48.4329C28.8761 48.2878 28.8761 48.2008 28.8761 48.1138C28.8761 48.0268 28.9048 47.9688 28.9048 47.9108C28.9336 47.8528 28.9623 47.8238 28.991 47.8238C29.0198 47.7948 29.0485 47.7948 29.106 47.7948C29.2784 47.7948 29.4507 47.7658 29.6231 47.6788C29.7955 47.5918 29.9392 47.4468 30.0829 47.2438C30.2265 47.0408 30.3702 46.7798 30.4851 46.4607C30.6 46.1417 30.7437 45.7357 30.8299 45.2717C30.9448 44.8077 31.031 44.2566 31.1172 43.6186C31.2034 42.9806 31.2896 42.2555 31.3758 41.4435C31.3758 41.2695 31.4333 41.1535 31.4908 41.0664C31.5482 40.9794 31.6632 40.9504 31.7781 40.9504H35.6857C35.8294 40.9504 35.9156 40.9794 36.0018 41.0664C36.088 41.1535 36.1167 41.2695 36.1167 41.4435V48.7229Z" fill="#D3B75E"/>
<path d="M45.3398 48.7227C45.3398 48.7517 45.3398 48.8097 45.3111 48.8387C45.2824 48.8677 45.2536 48.8967 45.1962 48.9257C45.1387 48.9547 45.0812 48.9547 44.995 48.9837C44.9088 48.9837 44.7939 49.0127 44.6502 49.0127C44.5066 49.0127 44.3917 49.0127 44.3055 48.9837C44.2193 48.9837 44.1331 48.9547 44.0756 48.9257C44.0181 48.8967 43.9894 48.8677 43.9607 48.8387C43.9319 48.8097 43.9319 48.7807 43.9319 48.7227V44.3724C43.9319 44.1404 43.9319 43.9374 43.9607 43.7054C43.9607 43.4734 43.9894 43.2414 43.9894 43.0384C43.8745 43.2704 43.7308 43.4734 43.5584 43.7054C43.386 43.9374 43.2424 44.1404 43.0987 44.3434L39.9094 48.7227C39.8806 48.7807 39.8232 48.8097 39.7944 48.8387C39.7657 48.8677 39.737 48.8967 39.6795 48.9257C39.622 48.9547 39.5646 48.9547 39.5071 48.9547C39.4497 48.9547 39.3347 48.9547 39.2485 48.9547C39.1336 48.9547 39.0187 48.9547 38.9612 48.9257C38.9037 48.8967 38.8175 48.8967 38.7601 48.8677C38.7026 48.8387 38.6739 48.8097 38.6739 48.7807C38.6451 48.7517 38.6451 48.7227 38.6451 48.6647V41.0952C38.6451 41.0662 38.6451 41.0082 38.6739 40.9792C38.7026 40.9502 38.7313 40.9212 38.7888 40.8922C38.8463 40.8632 38.9037 40.8632 38.9899 40.8342C39.0761 40.8342 39.1911 40.8342 39.306 40.8342C39.5646 40.8342 39.7657 40.8632 39.8519 40.8922C39.9381 40.9212 39.9956 41.0082 39.9956 41.0952V45.4745C39.9956 45.7065 39.9956 45.9095 39.9668 46.1125C39.9668 46.3155 39.9381 46.5475 39.9381 46.7506C40.053 46.5475 40.1967 46.3155 40.3116 46.1125C40.4553 45.9095 40.5702 45.7065 40.7426 45.5035L43.9607 41.0662C43.9894 41.0082 44.0181 40.9792 44.0756 40.9502C44.1043 40.9212 44.1618 40.8922 44.2193 40.8632C44.2767 40.8342 44.3342 40.8342 44.4204 40.8342C44.5066 40.8342 44.5928 40.8342 44.7077 40.8342C44.8226 40.8342 44.9088 40.8342 44.995 40.8342C45.0812 40.8342 45.1387 40.8632 45.1962 40.8922C45.2536 40.9212 45.2824 40.9502 45.2824 40.9792C45.3111 41.0082 45.3111 41.0662 45.3111 41.0952V48.7227H45.3398Z" fill="#D3B75E"/>
<path d="M53.5286 48.7228C53.5286 48.7808 53.4999 48.8388 53.4711 48.8678C53.4137 48.8968 53.3562 48.9258 53.2987 48.9548C53.2413 48.9838 53.0976 48.9838 52.954 48.9838C52.8103 48.9838 52.6954 48.9838 52.6092 48.9548C52.523 48.9258 52.4655 48.9258 52.408 48.8678C52.3793 48.8388 52.3506 48.7808 52.3506 48.7228V47.9687C52.0345 48.3167 51.661 48.6067 51.2587 48.7808C50.8565 48.9838 50.4255 49.0708 49.9945 49.0708C49.5922 49.0708 49.2475 49.0128 48.9314 48.9258C48.6153 48.8098 48.328 48.6648 48.1269 48.4617C47.897 48.2587 47.7246 48.0267 47.6097 47.7367C47.4948 47.4467 47.4086 47.1277 47.4086 46.7506C47.4086 46.3156 47.4948 45.9676 47.6672 45.6486C47.8396 45.3296 48.0982 45.0686 48.4142 44.8655C48.7303 44.6625 49.1325 44.5175 49.5922 44.4015C50.052 44.2855 50.5692 44.2565 51.1725 44.2565H52.2069V43.6765C52.2069 43.3865 52.1782 43.1254 52.1207 42.8934C52.0632 42.6614 51.9483 42.4874 51.8334 42.3424C51.6897 42.1974 51.5173 42.0814 51.3162 41.9944C51.0863 41.9074 50.8277 41.8784 50.5117 41.8784C50.1669 41.8784 49.8796 41.9074 49.5922 41.9944C49.3336 42.0814 49.0751 42.1684 48.8739 42.2554C48.6728 42.3424 48.5004 42.4294 48.3567 42.5164C48.2131 42.6034 48.1269 42.6324 48.0407 42.6324C47.9832 42.6324 47.9545 42.6324 47.9258 42.6034C47.897 42.5744 47.8683 42.5454 47.8396 42.5164C47.8108 42.4584 47.8108 42.4004 47.7821 42.3424C47.7821 42.2844 47.7534 42.1974 47.7534 42.1104C47.7534 41.9654 47.7534 41.8494 47.7821 41.7914C47.8108 41.7044 47.8396 41.6464 47.9258 41.5594C48.012 41.5014 48.1269 41.4144 48.2993 41.2983C48.4717 41.2113 48.7015 41.1243 48.9314 41.0373C49.1613 40.9503 49.4198 40.8923 49.7072 40.8343C49.9945 40.7763 50.2818 40.7473 50.5692 40.7473C51.1151 40.7473 51.5748 40.8053 51.9483 40.9213C52.3218 41.0373 52.6379 41.2113 52.8678 41.4724C53.0976 41.7044 53.27 41.9944 53.3849 42.3714C53.4999 42.7194 53.5573 43.1254 53.5573 43.6185V48.7228H53.5286ZM52.1782 45.2716H51.0001C50.6266 45.2716 50.2818 45.3006 50.0232 45.3586C49.7359 45.4166 49.506 45.5036 49.3337 45.6486C49.1613 45.7646 49.0176 45.9386 48.9314 46.1126C48.8452 46.2866 48.8165 46.4896 48.8165 46.7216C48.8165 47.1277 48.9314 47.4177 49.19 47.6497C49.4486 47.8817 49.7934 47.9977 50.2244 47.9977C50.5979 47.9977 50.9139 47.9107 51.23 47.7077C51.5461 47.5337 51.8621 47.2437 52.2069 46.8667V45.2716H52.1782Z" fill="#D3B75E"/>
<path d="M62.9532 44.8366C62.9532 45.5036 62.8957 46.0837 62.752 46.6057C62.6084 47.1277 62.4072 47.5917 62.1199 47.9398C61.8326 48.3168 61.5165 48.5778 61.1143 48.7808C60.712 48.9838 60.2523 49.0708 59.7351 49.0708C59.5052 49.0708 59.3041 49.0418 59.1317 49.0128C58.9306 48.9548 58.7582 48.8968 58.5858 48.8098C58.4134 48.7228 58.241 48.6068 58.0399 48.4618C57.8675 48.3168 57.6664 48.1428 57.4652 47.9398V51.71C57.4652 51.768 57.4652 51.797 57.4365 51.826C57.4078 51.855 57.379 51.884 57.3216 51.913C57.2641 51.942 57.2066 51.942 57.1204 51.971C57.0342 51.971 56.9193 52 56.7756 52C56.632 52 56.517 52 56.4309 51.971C56.3447 51.971 56.2585 51.942 56.2297 51.913C56.1723 51.884 56.1435 51.855 56.1148 51.826C56.0861 51.797 56.0861 51.739 56.0861 51.71V41.1534C56.0861 41.0954 56.0861 41.0664 56.1148 41.0374C56.1435 41.0084 56.1723 40.9794 56.201 40.9504C56.2585 40.9214 56.3159 40.9214 56.4021 40.8924C56.4883 40.8634 56.5745 40.8924 56.6894 40.8924C56.8044 40.8924 56.8906 40.8924 56.9768 40.8924C57.063 40.8924 57.1204 40.9214 57.1779 40.9504C57.2354 40.9794 57.2641 41.0084 57.2928 41.0374C57.3216 41.0664 57.3216 41.0954 57.3216 41.1534V42.1684C57.5514 41.9364 57.7813 41.7334 57.9824 41.5594C58.1835 41.3854 58.4134 41.2404 58.6145 41.1244C58.8157 41.0084 59.0455 40.9214 59.2754 40.8634C59.5052 40.8054 59.7351 40.7764 59.9937 40.7764C60.5396 40.7764 60.9993 40.8924 61.3729 41.0954C61.7464 41.2984 62.0624 41.5884 62.321 41.9654C62.5509 42.3425 62.752 42.7775 62.8382 43.2415C62.8957 43.7635 62.9532 44.2856 62.9532 44.8366ZM61.5165 44.9816C61.5165 44.6046 61.4878 44.2276 61.4303 43.8505C61.3729 43.5025 61.2579 43.1545 61.1143 42.8935C60.9706 42.6325 60.7695 42.4005 60.5396 42.2264C60.3098 42.0524 59.9937 41.9654 59.6489 41.9654C59.4765 41.9654 59.3041 41.9944 59.1317 42.0524C58.9593 42.1104 58.7869 42.1974 58.6145 42.3135C58.4421 42.4295 58.241 42.5745 58.0399 42.7775C57.8388 42.9515 57.6376 43.1835 57.4078 43.4735V46.4897C57.7813 46.9537 58.1548 47.3017 58.4996 47.5627C58.8444 47.8238 59.1892 47.9398 59.5627 47.9398C59.9075 47.9398 60.1948 47.8528 60.4534 47.6788C60.712 47.5047 60.9131 47.2727 61.0568 47.0117C61.2005 46.7217 61.3154 46.4317 61.4016 46.0837C61.4878 45.7356 61.5165 45.3296 61.5165 44.9816Z" fill="#D3B75E"/>
<path d="M64.677 51.4778C64.677 51.5068 64.677 51.5358 64.6482 51.5648C64.6195 51.5938 64.5908 51.6228 64.562 51.6228C64.5046 51.6518 64.4471 51.6518 64.3896 51.6518C64.3322 51.6518 64.2172 51.6808 64.131 51.6808C64.0161 51.6808 63.9299 51.6808 63.8437 51.6518C63.7575 51.6518 63.7001 51.6228 63.6713 51.6228C63.6139 51.5938 63.5851 51.5938 63.5851 51.5648C63.5564 51.5358 63.5564 51.5068 63.5564 51.4778V48.1136C63.5564 47.9686 63.5851 47.8816 63.6139 47.8236C63.6713 47.7656 63.7575 47.7656 63.8725 47.7656H64.4184C64.6195 47.5046 64.8206 47.2146 64.993 46.8956C65.1654 46.5766 65.3378 46.1705 65.4815 45.6775C65.6251 45.1845 65.7688 44.6045 65.9125 43.9084C66.0274 43.2124 66.1423 42.4003 66.2573 41.4433C66.2573 41.3563 66.286 41.2983 66.3147 41.2403C66.3435 41.1823 66.3722 41.1243 66.4009 41.0953C66.4297 41.0663 66.4871 41.0373 66.5159 41.0083C66.5733 40.9792 66.6308 40.9792 66.6882 40.9792H70.8545C70.9981 40.9792 71.0843 41.0082 71.1705 41.0953C71.2567 41.1823 71.2855 41.2983 71.2855 41.4723V47.7946H72.3198C72.4348 47.7946 72.521 47.8236 72.5784 47.8526C72.6359 47.9106 72.6646 47.9976 72.6646 48.1426V51.5068C72.6646 51.5358 72.6646 51.5648 72.6359 51.5938C72.6072 51.6228 72.5784 51.6518 72.5497 51.6518C72.4922 51.6808 72.4348 51.6808 72.3486 51.6808C72.2624 51.6808 72.1762 51.7098 72.0612 51.7098C71.9463 51.7098 71.8601 51.7098 71.7739 51.6808C71.7164 51.6808 71.6302 51.6518 71.6015 51.6518C71.5441 51.6228 71.5153 51.6228 71.5153 51.5938C71.4866 51.5648 71.4866 51.5358 71.4866 51.5068V48.9547H64.7344V51.4778H64.677ZM69.8488 42.0813H67.464C67.3491 43.0094 67.2342 43.7634 67.0905 44.4014C66.9756 45.0395 66.8319 45.5615 66.6882 45.9965C66.5446 46.4316 66.4009 46.7796 66.2285 47.0406C66.0849 47.3016 65.9125 47.5626 65.7401 47.7656H69.7914V42.0813H69.8488Z" fill="#D3B75E"/>
<path d="M80.3363 44.6046C80.3363 44.8366 80.2789 44.9816 80.1639 45.0686C80.049 45.1556 79.9341 45.2136 79.7904 45.2136H74.8484C74.8484 45.6196 74.8772 46.0257 74.9633 46.3447C75.0495 46.6927 75.1932 46.9827 75.3943 47.2147C75.5955 47.4467 75.8541 47.6497 76.1414 47.7658C76.4574 47.8818 76.831 47.9688 77.2907 47.9688C77.6355 47.9688 77.9803 47.9398 78.2389 47.8818C78.5262 47.8238 78.756 47.7658 78.9572 47.6788C79.1583 47.5917 79.3307 47.5337 79.4456 47.4757C79.5893 47.4177 79.6755 47.3887 79.733 47.3887C79.7617 47.3887 79.8192 47.3887 79.8479 47.4177C79.8766 47.4467 79.9053 47.4757 79.9053 47.5047C79.9341 47.5337 79.9341 47.5917 79.9341 47.6788C79.9341 47.7658 79.9341 47.8238 79.9341 47.9398C79.9341 48.0268 79.9341 48.0848 79.9341 48.1428C79.9341 48.2008 79.9341 48.2298 79.9053 48.2878C79.9053 48.3168 79.8766 48.3748 79.8766 48.4038C79.8479 48.4328 79.8192 48.4618 79.7904 48.4908C79.7617 48.5198 79.6755 48.5778 79.5318 48.6358C79.3882 48.6938 79.187 48.7808 78.9572 48.8388C78.7273 48.8968 78.44 48.9548 78.1239 49.0128C77.8079 49.0708 77.4631 49.0998 77.1183 49.0998C76.5149 49.0998 75.969 49.0128 75.5093 48.8388C75.0495 48.6648 74.6473 48.4038 74.3312 48.0558C74.0152 47.7078 73.7853 47.2727 73.6129 46.7797C73.4405 46.2577 73.3831 45.6776 73.3831 44.9816C73.3831 44.3436 73.4693 43.7345 73.6416 43.2415C73.814 42.7195 74.0439 42.2844 74.36 41.9074C74.676 41.5594 75.0495 41.2694 75.5093 41.0664C75.9403 40.8634 76.4574 40.7764 77.0034 40.7764C77.578 40.7764 78.0952 40.8634 78.4975 41.0664C78.8997 41.2694 79.2445 41.5014 79.5318 41.8494C79.8192 42.1974 79.9916 42.5455 80.1065 42.9805C80.2214 43.4155 80.3076 43.8795 80.3076 44.3726V44.6046H80.3363ZM78.9572 44.1986C78.9859 43.4735 78.8135 42.8935 78.4687 42.4875C78.1239 42.0814 77.6355 41.8784 76.9746 41.8784C76.6298 41.8784 76.3425 41.9364 76.0839 42.0814C75.8253 42.1974 75.6242 42.3715 75.4518 42.6035C75.2794 42.8065 75.1357 43.0675 75.0495 43.3575C74.9633 43.6475 74.9059 43.9375 74.8771 44.2566H78.9572V44.1986Z" fill="#D3B75E"/>
<path d="M89.3297 44.8366C89.3297 45.5036 89.2723 46.0837 89.1286 46.6057C88.9849 47.1277 88.7838 47.5917 88.4965 47.9398C88.2092 48.3168 87.8931 48.5778 87.4908 48.7808C87.0886 48.9838 86.6289 49.0708 86.1117 49.0708C85.8818 49.0708 85.6807 49.0418 85.5083 49.0128C85.3072 48.9548 85.1348 48.8968 84.9624 48.8098C84.79 48.7228 84.6176 48.6068 84.4165 48.4618C84.2441 48.3168 84.0429 48.1428 83.8418 47.9398V51.71C83.8418 51.768 83.8418 51.797 83.8131 51.826C83.7843 51.855 83.7556 51.884 83.6982 51.913C83.6407 51.942 83.5832 51.942 83.497 51.971C83.4108 51.971 83.2959 52 83.1522 52C83.0086 52 82.8936 52 82.8074 51.971C82.7212 51.971 82.635 51.942 82.6063 51.913C82.5488 51.884 82.5201 51.855 82.4914 51.826C82.4626 51.797 82.4626 51.739 82.4626 51.71V41.1534C82.4626 41.0954 82.4626 41.0664 82.4914 41.0374C82.5201 41.0084 82.5489 40.9794 82.5776 40.9504C82.635 40.9214 82.6925 40.9214 82.7787 40.8924C82.8649 40.8634 82.9511 40.8924 83.066 40.8924C83.181 40.8924 83.2672 40.8924 83.3534 40.8924C83.4396 40.8924 83.497 40.9214 83.5545 40.9504C83.612 40.9794 83.6407 41.0084 83.6694 41.0374C83.6981 41.0664 83.6982 41.0954 83.6982 41.1534V42.1684C83.928 41.9364 84.1579 41.7334 84.359 41.5594C84.5601 41.3854 84.79 41.2404 84.9911 41.1244C85.1922 41.0084 85.4221 40.9214 85.652 40.8634C85.8818 40.8054 86.1117 40.7764 86.3703 40.7764C86.9162 40.7764 87.3759 40.8924 87.7494 41.0954C88.123 41.2984 88.439 41.5884 88.6976 41.9654C88.9275 42.3425 89.1286 42.7775 89.2148 43.2415C89.2723 43.7635 89.3297 44.2856 89.3297 44.8366ZM87.9218 44.9816C87.9218 44.6046 87.8931 44.2276 87.8356 43.8505C87.7782 43.5025 87.6632 43.1545 87.5196 42.8935C87.3759 42.6035 87.1748 42.4005 86.9449 42.2264C86.7151 42.0524 86.399 41.9654 86.0542 41.9654C85.8818 41.9654 85.7094 41.9944 85.537 42.0524C85.3646 42.1104 85.1922 42.1974 85.0198 42.3135C84.8475 42.4295 84.6463 42.5745 84.4452 42.7775C84.2441 42.9515 84.0429 43.1835 83.8131 43.4735V46.4897C84.1866 46.9537 84.5601 47.3017 84.9049 47.5627C85.2497 47.8238 85.5945 47.9398 85.968 47.9398C86.3128 47.9398 86.6001 47.8528 86.8587 47.6788C87.1173 47.5047 87.3185 47.2727 87.4621 47.0117C87.6058 46.7217 87.7207 46.4317 87.8069 46.0837C87.8644 45.6776 87.9218 45.3296 87.9218 44.9816Z" fill="#D3B75E"/>
<path d="M98.3802 44.8656C98.3802 45.4746 98.294 46.0547 98.1503 46.5767C97.9779 47.0987 97.7481 47.5337 97.432 47.9108C97.1159 48.2878 96.7137 48.5778 96.2252 48.7808C95.7368 48.9838 95.1909 49.0998 94.5587 49.0998C93.9554 49.0998 93.4094 49.0128 92.9497 48.8098C92.49 48.6358 92.1165 48.3458 91.8004 47.9978C91.4844 47.6497 91.2545 47.2147 91.1108 46.7217C90.9672 46.2287 90.881 45.6486 90.881 45.0106C90.881 44.4016 90.9672 43.8215 91.1108 43.2995C91.2545 42.7775 91.5131 42.3425 91.8292 41.9654C92.1452 41.5884 92.5475 41.2984 93.0359 41.0954C93.5244 40.8924 94.0703 40.7764 94.7024 40.7764C95.3058 40.7764 95.8517 40.8634 96.3114 41.0664C96.7712 41.2404 97.1447 41.5304 97.4607 41.8784C97.7768 42.2264 98.0067 42.6615 98.1503 43.1545C98.294 43.6475 98.3802 44.2276 98.3802 44.8656ZM96.9436 44.9526C96.9436 44.5466 96.9148 44.1696 96.8286 43.7925C96.7424 43.4155 96.6275 43.0965 96.4551 42.8355C96.2827 42.5745 96.0528 42.3425 95.7368 42.1974C95.4495 42.0524 95.0759 41.9654 94.6162 41.9654C94.214 41.9654 93.8692 42.0524 93.5531 42.1974C93.2658 42.3425 93.0072 42.5455 92.8348 42.8065C92.6337 43.0675 92.49 43.3865 92.4038 43.7635C92.3176 44.1406 92.2601 44.5176 92.2601 44.9526C92.2601 45.3586 92.2889 45.7646 92.3751 46.1127C92.4613 46.4897 92.5762 46.8087 92.7486 47.0697C92.921 47.3307 93.1509 47.5627 93.4669 47.7078C93.7542 47.8818 94.1278 47.9398 94.5875 47.9398C94.9897 47.9398 95.3345 47.8528 95.6506 47.7078C95.9379 47.5627 96.1965 47.3597 96.3689 47.0987C96.57 46.8377 96.7137 46.5187 96.7999 46.1707C96.8861 45.7936 96.9436 45.3876 96.9436 44.9526Z" fill="#D3B75E"/>
<path d="M106.54 46.5478C106.54 46.9539 106.454 47.3019 106.31 47.6209C106.167 47.9399 105.937 48.2009 105.65 48.4039C105.362 48.607 104.989 48.781 104.558 48.897C104.127 49.013 103.61 49.071 103.035 49.071C102.863 49.071 102.661 49.071 102.489 49.071C102.317 49.071 102.144 49.071 102.001 49.042C101.857 49.013 101.685 49.013 101.512 49.013C101.34 49.013 101.196 48.984 101.052 48.984C100.823 48.955 100.679 48.868 100.564 48.752C100.449 48.636 100.392 48.4619 100.392 48.2299V41.7046C100.392 41.4726 100.449 41.2985 100.535 41.1825C100.65 41.0665 100.794 40.9795 100.995 40.9505C101.139 40.9215 101.282 40.9215 101.455 40.9215C101.627 40.9215 101.799 40.8925 101.972 40.8925C102.144 40.8925 102.317 40.8635 102.518 40.8635C102.69 40.8635 102.891 40.8635 103.064 40.8635C103.61 40.8635 104.069 40.9215 104.472 41.0085C104.874 41.0955 105.19 41.2405 105.449 41.4146C105.707 41.5886 105.908 41.7916 106.023 42.0526C106.138 42.3136 106.224 42.6036 106.224 42.9226C106.224 43.3577 106.109 43.7057 105.88 44.0247C105.65 44.3147 105.334 44.5467 104.874 44.6627C105.42 44.7787 105.851 45.0108 106.109 45.3298C106.397 45.6198 106.54 46.0548 106.54 46.5478ZM104.874 43.0386C104.874 42.8646 104.845 42.6906 104.788 42.5456C104.73 42.4006 104.615 42.2846 104.472 42.1686C104.328 42.0816 104.127 41.9946 103.868 41.9366C103.638 41.8786 103.322 41.8496 102.978 41.8496C102.719 41.8496 102.489 41.8496 102.259 41.8786C102.029 41.8786 101.857 41.9076 101.713 41.9366V44.2857H103.121C103.696 44.2857 104.127 44.1697 104.443 43.9667C104.73 43.7637 104.874 43.4447 104.874 43.0386ZM105.132 46.5768C105.132 46.3448 105.104 46.1418 105.018 45.9968C104.931 45.8228 104.816 45.6778 104.644 45.5618C104.472 45.4458 104.27 45.3588 103.983 45.3008C103.696 45.2428 103.409 45.2138 103.035 45.2138H101.685V47.8819C101.799 47.9109 101.886 47.9109 102.001 47.9109C102.116 47.9109 102.23 47.9399 102.345 47.9399C102.46 47.9399 102.575 47.9689 102.69 47.9689C102.805 47.9689 102.92 47.9689 103.006 47.9689C103.38 47.9689 103.667 47.9399 103.926 47.8819C104.184 47.8239 104.385 47.7369 104.558 47.5919C104.73 47.4759 104.845 47.3309 104.931 47.1279C105.104 46.9829 105.132 46.8089 105.132 46.5768Z" fill="#D3B75E"/>
<path d="M21.8368 32.0178C21.8368 32.1628 21.808 32.3078 21.7506 32.3948C21.6931 32.4818 21.5782 32.5688 21.4058 32.6558C21.2334 32.7138 21.0323 32.7718 20.7449 32.8008C20.4576 32.8298 20.1128 32.8588 19.6818 32.8588C19.1934 32.8588 18.8199 32.8298 18.5038 32.8008C18.2165 32.7718 17.9866 32.6848 17.8142 32.5978C17.6418 32.5108 17.4982 32.3948 17.412 32.2788C17.3258 32.1628 17.2396 31.9888 17.2108 31.8148L14.2226 23.8683C13.8204 22.7953 13.3894 21.8672 12.9009 21.1132C12.4125 20.3591 11.8666 19.7211 11.2345 19.2281C10.6023 18.735 9.88403 18.358 9.07952 18.126C8.27501 17.894 7.3843 17.778 6.37866 17.778H4.56851V32.0178C4.56851 32.1628 4.53977 32.2788 4.48231 32.3658C4.42484 32.4528 4.30991 32.5398 4.13752 32.5978C3.96512 32.6558 3.73526 32.7138 3.47667 32.7428C3.18934 32.7718 2.84455 32.8008 2.4423 32.8008C2.04004 32.8008 1.69525 32.7718 1.40792 32.7428C1.1206 32.7138 0.890737 32.6558 0.718342 32.5978C0.545947 32.5398 0.431017 32.4528 0.373552 32.3658C0.316086 32.2788 0.287354 32.1338 0.287354 32.0178V0.754042C0.287354 0.638035 0.316086 0.522029 0.373552 0.435024C0.431017 0.348019 0.545947 0.261014 0.718342 0.203011C0.890737 0.145008 1.1206 0.0870045 1.40792 0.0580029C1.69525 0.0290013 2.04004 0 2.4423 0C2.87328 0 3.21808 0.0290013 3.47667 0.0580029C3.76399 0.0870045 3.96512 0.145008 4.13752 0.203011C4.30991 0.261014 4.42484 0.348019 4.48231 0.435024C4.53977 0.522029 4.56851 0.638035 4.56851 0.754042V14.0658H6.37866C7.3843 14.0658 8.24627 13.9498 9.02205 13.6888C9.7691 13.4567 10.4299 13.0797 11.0046 12.5867C11.5793 12.0937 12.0964 11.4846 12.5274 10.7306C12.9584 9.97656 13.3607 9.10651 13.7055 8.06245L16.1477 1.01506C16.2052 0.841047 16.2627 0.696039 16.3489 0.551031C16.4351 0.406022 16.55 0.319018 16.7224 0.232013C16.8948 0.145008 17.1246 0.0870045 17.412 0.0580029C17.6993 0.0290013 18.0728 0 18.5613 0C18.9923 0 19.337 0.0290013 19.6244 0.0580029C19.883 0.0870045 20.1128 0.145008 20.2565 0.203011C20.4289 0.261014 20.5151 0.348019 20.5725 0.464025C20.63 0.55103 20.6587 0.696039 20.6587 0.812045C20.6587 0.986055 20.63 1.18907 20.5725 1.42108C20.5151 1.65309 20.4289 1.91411 20.3427 2.20412L17.7568 8.9615C17.3832 9.97655 17.0097 10.8756 16.6074 11.6006C16.2052 12.3257 15.7742 12.9637 15.3145 13.5148C14.8548 14.0368 14.3376 14.4718 13.7917 14.8198C13.2457 15.1678 12.6136 15.4289 11.924 15.6319V15.6899C12.6998 15.9799 13.4181 16.2989 14.0215 16.6759C14.6249 17.0529 15.1996 17.517 15.7167 18.068C16.2339 18.619 16.7224 19.2861 17.1534 20.0691C17.5844 20.8522 18.0153 21.7802 18.4176 22.8823L21.4633 30.6257C21.6356 31.0607 21.7218 31.3797 21.7506 31.5538C21.808 31.7278 21.8368 31.8728 21.8368 32.0178Z" fill="#1D1D1B"/>
<path d="M50.8564 32.0758C50.8564 32.2208 50.8277 32.3368 50.7702 32.4238C50.7127 32.5108 50.5978 32.5978 50.4254 32.6558C50.253 32.7138 50.0232 32.7718 49.7646 32.8008C49.4772 32.8298 49.1324 32.8588 48.7302 32.8588C48.2992 32.8588 47.9544 32.8298 47.6958 32.8008C47.4085 32.7718 47.2074 32.7138 47.035 32.6558C46.8626 32.5978 46.7476 32.5108 46.6902 32.4238C46.6327 32.3368 46.604 32.2208 46.604 32.0758V3.85723H37.4096C36.9498 7.74344 36.5188 11.1366 36.0591 14.0948C35.5994 17.053 35.1397 19.6051 34.6225 21.7802C34.134 23.9553 33.5594 25.7534 32.956 27.2035C32.3526 28.6536 31.663 29.8137 30.8873 30.6837C30.1115 31.5538 29.2208 32.1918 28.2439 32.5398C27.267 32.8878 26.1464 33.0909 24.9109 33.0909C24.7385 33.0909 24.5948 33.0619 24.4512 33.0038C24.3075 32.9458 24.1926 32.8298 24.1064 32.6848C24.0202 32.5398 23.934 32.3368 23.9052 32.1048C23.8765 31.8728 23.8478 31.5828 23.8478 31.2638C23.8478 30.8577 23.8765 30.5097 23.9052 30.2197C23.934 29.9587 23.9914 29.7267 24.0776 29.5527C24.1351 29.3786 24.2213 29.2626 24.3362 29.2046C24.4512 29.1466 24.5661 29.1176 24.7098 29.1176C25.3419 29.1176 25.9165 29.0016 26.4624 28.7406C27.0084 28.4796 27.5255 28.0156 28.0427 27.3195C28.5599 26.6235 29.0196 25.6374 29.4794 24.3904C29.9391 23.1433 30.3988 21.5192 30.8298 19.5181C31.2608 17.517 31.6918 15.0809 32.094 12.2387C32.525 9.39653 32.9273 6.00335 33.3295 2.08813C33.4157 1.39209 33.5881 0.87006 33.818 0.580044C34.0766 0.290028 34.4501 0.14502 34.9098 0.14502H49.3336C49.7933 0.14502 50.1668 0.290028 50.4254 0.580044C50.684 0.87006 50.8277 1.30508 50.8277 1.91412V32.0758H50.8564Z" fill="#1D1D1B"/>
<path d="M107 22.9982C107 24.2453 106.799 25.4634 106.396 26.6234C105.994 27.7835 105.362 28.8276 104.5 29.6976C103.609 30.5967 102.46 31.2927 100.995 31.8437C99.5293 32.3948 97.5468 32.6558 95.047 32.6558H87.2318C86.8295 32.6558 86.456 32.5398 86.1399 32.2788C85.7952 32.0177 85.6515 31.5537 85.6515 30.8867V1.88506C85.6515 1.21802 85.8239 0.782994 86.1399 0.521979C86.4847 0.260965 86.8295 0.144958 87.2318 0.144958H104.04C104.184 0.144958 104.328 0.17396 104.443 0.231963C104.558 0.289966 104.644 0.405973 104.73 0.550981C104.816 0.695989 104.874 0.899 104.902 1.13101C104.931 1.36303 104.96 1.65304 104.96 1.97206C104.96 2.26208 104.931 2.55209 104.902 2.78411C104.874 3.01612 104.816 3.21913 104.73 3.36414C104.644 3.50915 104.558 3.62515 104.443 3.68316C104.328 3.74116 104.213 3.79916 104.04 3.79916H89.9039V13.9787H95.8516C97.8916 13.9787 99.5581 14.1817 100.88 14.6168C102.201 15.0228 103.322 15.6318 104.213 16.4149C105.103 17.1979 105.793 18.155 106.281 19.257C106.77 20.3881 107 21.6352 107 22.9982ZM102.546 23.3172C102.546 22.4182 102.403 21.6062 102.115 20.8811C101.828 20.1561 101.397 19.547 100.851 19.054C100.305 18.561 99.5868 18.155 98.7535 17.8939C97.8916 17.6039 96.771 17.4879 95.3631 17.4879H89.9614V29.2046H95.5068C96.8572 29.2046 97.949 29.0596 98.7823 28.7986C99.6443 28.5375 100.334 28.1315 100.88 27.6385C101.426 27.1165 101.828 26.5074 102.144 25.7824C102.403 25.0283 102.546 24.2163 102.546 23.3172Z" fill="#1D1D1B"/>
<path d="M78.0667 0.144907L75.883 0.115906C75.1934 0.115906 74.9349 0.405922 74.7625 0.72494L67.5506 14.2687L60.3387 0.72494C60.1663 0.405922 59.879 0.115906 59.2181 0.115906L57.0345 0.144907C56.3162 0.202911 55.9426 0.840946 56.3162 1.47898L65.4531 17.3139C65.4531 17.3429 65.4244 17.3719 65.4244 17.4009V18.6479H58.7584C58.1838 18.6479 57.7241 19.112 57.7241 19.692V20.7361C57.7241 21.3161 58.1838 21.7801 58.7584 21.7801H65.4244V25.5793H58.7584C58.1838 25.5793 57.7241 26.0434 57.7241 26.6234V27.6674C57.7241 28.2475 58.1838 28.7115 58.7584 28.7115H65.4244V31.8437C65.4244 32.3947 65.8841 32.8587 66.43 32.8587H68.6999C69.2458 32.8587 69.7055 32.3947 69.7055 31.8437V28.6535H76.3715C76.9461 28.6535 77.4059 28.1895 77.4059 27.6094V26.5654C77.4059 25.9854 76.9461 25.5213 76.3715 25.5213H69.7055V21.7511H76.3715C76.9461 21.7511 77.4059 21.2871 77.4059 20.7071V19.663C77.4059 19.083 76.9461 18.6189 76.3715 18.6189H69.7055V17.3719C69.7055 17.3429 69.6768 17.3139 69.6768 17.2849L78.8138 1.44998C79.1585 0.840946 78.8138 0.202911 78.0667 0.144907Z" fill="#D3B75E"/>
</svg>
